Run_20002
nRows=4
nColumns=164

# SIMM Motion File Header:
name Run_20002
datacolumns 164
datarows 4
otherdata 1
range 0.13000000 0.16000000
endheader
time	pelvis_tilt	pelvis_list	pelvis_rotation	pelvis_tx	pelvis_ty	pelvis_tz	hip_flexion_r	hip_adduction_r	hip_rotation_r	knee_angle_r	ankle_angle_r	hip_flexion_l	hip_adduction_l	hip_rotation_l	knee_angle_l	ankle_angle_l	lumbar_extension	lumbar_bending	lumbar_rotation	arm_flex_r	arm_add_r	arm_rot_r	elbow_flex_r	pro_sup_r	arm_flex_l	arm_add_l	arm_rot_l	elbow_flex_l	pro_sup_l	subtalar_angle_r	mtp_angle_r	subtalar_angle_l	mtp_angle_l	wrist_flex_r	wrist_dev_r	wrist_flex_l	wrist_dev_l	LASI_tx	LASI_ty	LASI_tz	RASI_tx	RASI_ty	RASI_tz	LPSI_tx	LPSI_ty	LPSI_tz	RPSI_tx	RPSI_ty	RPSI_tz	RTH1_tx	RTH1_ty	RTH1_tz	RTH2_tx	RTH2_ty	RTH2_tz	RTH3_tx	RTH3_ty	RTH3_tz	LTH1_tx	LTH1_ty	LTH1_tz	LTH2_tx	LTH2_ty	LTH2_tz	LTH3_tx	LTH3_ty	LTH3_tz	RTB1_tx	RTB1_ty	RTB1_tz	RTB2_tx	RTB2_ty	RTB2_tz	RTB3_tx	RTB3_ty	RTB3_tz	LTB1_tx	LTB1_ty	LTB1_tz	LTB2_tx	LTB2_ty	LTB2_tz	LTB3_tx	LTB3_ty	LTB3_tz	RCAL_tx	RCAL_ty	RCAL_tz	RTOE_tx	RTOE_ty	RTOE_tz	RMT5_tx	RMT5_ty	RMT5_tz	LCAL_tx	LCAL_ty	LCAL_tz	LTOE_tx	LTOE_ty	LTOE_tz	LMT5_tx	LMT5_ty	LMT5_tz	LACR_tx	LACR_ty	LACR_tz	RACR_tx	RACR_ty	RACR_tz	CLAV_tx	CLAV_ty	CLAV_tz	C7_tx	C7_ty	C7_tz	RUA1_tx	RUA1_ty	RUA1_tz	RUA2_tx	RUA2_ty	RUA2_tz	RUA3_tx	RUA3_ty	RUA3_tz	RLEL_tx	RLEL_ty	RLEL_tz	RMEL_tx	RMEL_ty	RMEL_tz	LUA1_tx	LUA1_ty	LUA1_tz	LUA2_tx	LUA2_ty	LUA2_tz	LUA3_tx	LUA3_ty	LUA3_tz	LLEL_tx	LLEL_ty	LLEL_tz	LMEL_tx	LMEL_ty	LMEL_tz	RFAsuperior_tx	RFAsuperior_ty	RFAsuperior_tz	RFAradius_tx	RFAradius_ty	RFAradius_tz	RFAulna_tx	RFAulna_ty	RFAulna_tz	LFAsuperior_tx	LFAsuperior_ty	LFAsuperior_tz	LFAradius_tx	LFAradius_ty	LFAradius_tz	LFAulna_tx	LFAulna_ty	LFAulna_tz
      0.13000000	      5.67094305	     -6.35263001	     -3.18132337	      1.20634467	      0.97176839	     -0.32637839	     15.82413440	     10.35388099	      0.74878484	    -40.65906739	     17.12615354	     -5.87672819	      0.78377277	      3.83280647	    -66.85182355	     -1.20777587	    -21.05810521	     10.49462617	      3.51183663	    -28.81039209	    -18.26576897	     -1.12834920	    129.31400574	     93.24505648	    -22.25772311	    -10.71550932	      6.36920901	    115.61190901	     92.60074337	      0.00000000	      0.00000000	      0.00000000	      0.00000000	      0.00000000	      0.00000000	      0.00000000	      0.00000000	      1.21809225	      0.98426333	     -0.44988500	      1.20441293	      1.00084866	     -0.19293546	      1.04133180	      1.02638318	     -0.38350991	      1.03310272	      1.03044093	     -0.29034612	      1.19110306	      0.83505220	     -0.13576281	      1.25192545	      0.74695980	     -0.14388448	      1.22989974	      0.60341800	     -0.16950948	      1.15703032	      0.81882380	     -0.50174922	      1.21693993	      0.69347201	     -0.47337364	      1.14345163	      0.57527286	     -0.47018722	      1.28126703	      0.34557668	     -0.24701820	      1.21296930	      0.25409696	     -0.20501787	      1.21502050	      0.18198308	     -0.27075191	      1.02186757	      0.34851964	     -0.40535381	      0.95608956	      0.35193702	     -0.45413022	      0.88956201	      0.30334303	     -0.40339189	      1.07330878	      0.10243771	     -0.27512996	      1.30941355	      0.07543800	     -0.27859254	      1.28886528	      0.05610221	     -0.20254659	      0.72965289	      0.35717224	     -0.40213069	      0.79371141	      0.12578709	     -0.37097790	      0.77303683	      0.14022424	     -0.45967843	      1.22343387	      1.51276610	     -0.47140486	      1.20615182	      1.47435426	     -0.12522753	      1.26041080	      1.43323226	     -0.26909705	      1.15113121	      1.52940134	     -0.30237324	      1.12929471	      1.34810021	     -0.05021836	      1.05979444	      1.35186838	     -0.05291966	      1.06218806	      1.27868778	     -0.03904056	      1.01563557	      1.21301377	     -0.02396314	      0.97848447	      1.22252229	     -0.11042590	      1.15661487	      1.41088402	     -0.55394014	      1.06929983	      1.37556258	     -0.54548471	      1.09456651	      1.30042645	     -0.58331877	      1.06670827	      1.23758815	     -0.60084418	      1.02185696	      1.23158669	     -0.52039068	      1.10013848	      1.19943635	     -0.04340651	      1.24449044	      1.19315619	     -0.13621828	      1.22850256	      1.12581406	     -0.11632952	      1.14158003	      1.19557368	     -0.57583727	      1.27900241	      1.16651958	     -0.46067649	      1.26170900	      1.09987996	     -0.48294378
      0.14000000	      6.05889238	     -6.55186731	     -2.55723086	      1.20404907	      0.96739053	     -0.32735967	     15.00776106	     10.34971939	      0.02749082	    -42.28161434	     19.05365516	     -3.67664481	      0.38595820	      4.14855096	    -70.22087008	      0.11212039	    -21.73010594	     10.99384538	      4.34495238	    -26.60469337	    -17.73315187	     -1.04184191	    127.62750554	     93.28403244	    -22.55052141	     -9.52588441	      5.13892916	    112.31513185	     94.16663312	      0.00000000	      0.00000000	      0.00000000	      0.00000000	      0.00000000	      0.00000000	      0.00000000	      0.00000000	      1.21452672	      0.97919825	     -0.45171720	      1.20366569	      0.99697735	     -0.19325088	      1.03888430	      1.02155282	     -0.38268755	      1.03108369	      1.02668556	     -0.28906391	      1.18941780	      0.83067620	     -0.13509300	      1.24852802	      0.74135498	     -0.14343323	      1.22458333	      0.59759875	     -0.16980983	      1.15625782	      0.81430128	     -0.50168119	      1.22321291	      0.69092379	     -0.47397180	      1.15393232	      0.57166642	     -0.47132652	      1.27115728	      0.33971685	     -0.24576605	      1.19931832	      0.25115819	     -0.20468841	      1.19835070	      0.17964870	     -0.27065662	      1.03720240	      0.34603312	     -0.40609353	      0.97163840	      0.34986913	     -0.45511328	      0.90460528	      0.30224936	     -0.40456301	      1.05377023	      0.10313289	     -0.27504795	      1.28976126	      0.07464979	     -0.27865141	      1.26904687	      0.05564029	     -0.20238593	      0.74342507	      0.35694597	     -0.40424088	      0.80973521	      0.12649938	     -0.37092584	      0.78964428	      0.14008682	     -0.45990423	      1.22036425	      1.50678341	     -0.47151899	      1.20819127	      1.46736015	     -0.12424561	      1.26119446	      1.42698774	     -0.26964616	      1.15193276	      1.52490530	     -0.30103066	      1.13655530	      1.33495357	     -0.05157212	      1.06671777	      1.33731611	     -0.04951942	      1.07058443	      1.26437359	     -0.03961825	      1.02688287	      1.19793967	     -0.02404258	      0.98759229	      1.20663482	     -0.10926222	      1.15060350	      1.40434771	     -0.55175543	      1.06244295	      1.37072809	     -0.53969479	      1.08546197	      1.29413868	     -0.57676987	      1.05616147	      1.23224038	     -0.59422903	      1.01532760	      1.22567459	     -0.51195157	      1.11164930	      1.18708834	     -0.04521994	      1.25408369	      1.18042619	     -0.13864131	      1.23907390	      1.11278830	     -0.11845472	      1.13096002	      1.18801690	     -0.57161069	      1.27091821	      1.14702395	     -0.46601809	      1.24952497	      1.08247820	     -0.49134064
      0.15000000	      6.29561703	     -6.73780770	     -1.94651301	      1.20195464	      0.96339116	     -0.32831412	     14.19239632	     10.36015285	     -0.62621269	    -43.62514157	     20.80171266	     -1.34189995	      0.01291361	      4.50027324	    -73.19460808	      1.27588202	    -22.17064028	     11.47353782	      5.30640703	    -24.71195698	    -17.11190292	     -1.20758383	    126.15930439	     93.55895864	    -22.79756453	     -8.54740811	      4.18041494	    109.23555080	     95.71181785	      0.00000000	      0.00000000	      0.00000000	      0.00000000	      0.00000000	      0.00000000	      0.00000000	      0.00000000	      1.21120779	      0.97471229	     -0.45337922	      1.20300118	      0.99347904	     -0.19361782	      1.03651934	      1.01762646	     -0.38159465	      1.02975917	      1.02341325	     -0.28819988	      1.18735670	      0.82680495	     -0.13446702	      1.24500418	      0.73622971	     -0.14294061	      1.21881670	      0.59261002	     -0.16987580	      1.15499392	      0.81034529	     -0.50153972	      1.22948767	      0.68930407	     -0.47469782	      1.16480958	      0.56865988	     -0.47258061	      1.26035400	      0.33445142	     -0.24516459	      1.18532558	      0.24853962	     -0.20436461	      1.18147661	      0.17762031	     -0.27060172	      1.05289953	      0.34398319	     -0.40717654	      0.98754563	      0.34810058	     -0.45605219	      0.92028493	      0.30084249	     -0.40564713	      1.03419846	      0.10388202	     -0.27489270	      1.27006763	      0.07392475	     -0.27860679	      1.24920476	      0.05542862	     -0.20222488	      0.75758799	      0.35555311	     -0.40626936	      0.82733491	      0.12646176	     -0.37053669	      0.80734925	      0.13891371	     -0.45974338	      1.21652105	      1.50172895	     -0.47162775	      1.21056469	      1.46110941	     -0.12342946	      1.26188964	      1.42179144	     -0.27023358	      1.15235051	      1.52061939	     -0.29963524	      1.14376480	      1.32383519	     -0.05323375	      1.07380946	      1.32450345	     -0.04726445	      1.07913363	      1.25177304	     -0.04065871	      1.03812342	      1.18450253	     -0.02480301	      0.99631650	      1.19242510	     -0.10870139	      1.14397898	      1.39883898	     -0.54956025	      1.05545588	      1.36665827	     -0.53420350	      1.07656835	      1.28899865	     -0.57057768	      1.04582899	      1.22813802	     -0.58799413	      1.00820422	      1.22099247	     -0.50400789	      1.12317250	      1.17610194	     -0.04775096	      1.26384024	      1.16959324	     -0.14175315	      1.24959849	      1.10168955	     -0.12097610	      1.12069843	      1.18156045	     -0.56842298	      1.26205497	      1.12967431	     -0.47105329	      1.23674112	      1.06725995	     -0.49898713
      0.16000000	      6.33142899	     -6.85314533	     -1.40206998	      1.20013969	      0.96013644	     -0.32909238	     13.37346911	     10.35464100	     -1.11976881	    -44.59547108	     22.33504344	      1.15994932	     -0.26872176	      4.84292848	    -75.61238986	      2.34862385	    -22.30254323	     11.82272778	      6.43706775	    -23.23328828	    -16.31384805	     -1.69223197	    125.10705698	     93.99844663	    -23.13272739	     -7.89323173	      3.57365748	    106.69208419	     96.89478379	      0.00000000	      0.00000000	      0.00000000	      0.00000000	      0.00000000	      0.00000000	      0.00000000	      0.00000000	      1.20839299	      0.97125122	     -0.45460865	      1.20243628	      0.99055156	     -0.19396724	      1.03436116	      1.01503650	     -0.38021803	      1.02914778	      1.02096697	     -0.28764520	      1.18486577	      0.82365336	     -0.13400031	      1.24125413	      0.73187474	     -0.14246751	      1.21244703	      0.58871996	     -0.16960126	      1.15319995	      0.80734037	     -0.50137196	      1.23561649	      0.68915153	     -0.47565029	      1.17604184	      0.56663128	     -0.47388273	      1.24842879	      0.33004141	     -0.24546646	      1.17081415	      0.24631733	     -0.20410933	      1.16425338	      0.17607599	     -0.27074017	      1.06908283	      0.34277046	     -0.40851481	      1.00389594	      0.34674011	     -0.45685594	      0.93680907	      0.29903630	     -0.40652796	      1.01456220	      0.10469640	     -0.27466084	      1.25029313	      0.07330030	     -0.27843330	      1.22930443	      0.05544935	     -0.20204415	      0.77221606	      0.35235016	     -0.40806966	      0.84732650	      0.12534948	     -0.36970923	      0.82693735	      0.13631948	     -0.45908886	      1.21168135	      1.49812601	     -0.47170189	      1.21353613	      1.45611094	     -0.12286186	      1.26244707	      1.41814859	     -0.27090305	      1.15233264	      1.51690632	     -0.29812870	      1.15067655	      1.31574279	     -0.05511086	      1.08088979	      1.31440675	     -0.04656126	      1.08768992	      1.24183585	     -0.04234560	      1.04901535	      1.17364907	     -0.02654362	      1.00452509	      1.18104073	     -0.10914436	      1.13641701	      1.39515820	     -0.54740405	      1.04813006	      1.36399816	     -0.52904322	      1.06760162	      1.28583174	     -0.56512845	      1.03540724	      1.22602339	     -0.58245600	      1.00008547	      1.21840449	     -0.49694141	      1.13430725	      1.16714685	     -0.05105189	      1.27357050	      1.16210911	     -0.14555696	      1.25994076	      1.09394124	     -0.12411309	      1.11014281	      1.17670600	     -0.56659848	      1.25207214	      1.11624055	     -0.47595180	      1.22313487	      1.05596065	     -0.50555382
